<?xml version="1.0" encoding="utf-8"?>
<!-- Generator: Adobe Illustrator 12.0.0, SVG Export Plug-In . SVG Version: 6.00 Build 51448)  -->
<!DOCTYPE svg PUBLIC "-//W3C//DTD SVG 1.1//EN" "http://www.w3.org/Graphics/SVG/1.1/DTD/svg11.dtd" [
	<!ENTITY ns_svg "http://www.w3.org/2000/svg">
	<!ENTITY ns_xlink "http://www.w3.org/1999/xlink">
]>
<svg  version="1.1" id="Layer_1" xmlns="&ns_svg;" xmlns:xlink="&ns_xlink;" width="482.121" height="482.669"
	 viewBox="0 0 482.121 482.669" overflow="visible" enable-background="new 0 0 482.121 482.669" xml:space="preserve">
<path opacity="0.39" fill-rule="evenodd" clip-rule="evenodd" fill="#ADADAD" d="M13.379,314.75
	c60.667-86,155.363,17.304,224.44,42.077c76.969,27.604,152.893,12.368,158.56,40.146s-39.667,97.11-218.903,84.083
	C114.416,476.473-47.288,400.751,13.379,314.75z"/>
<path fill-rule="evenodd" clip-rule="evenodd" fill="#1c1f23" d="M482.121,216.265c0,10.286-7.387,18.625-16.5,18.625h-341
	c-9.113,0-16.5-8.339-16.5-18.625V18.625c0-10.287,7.387-18.625,16.5-18.625h341c9.113,0,16.5,8.339,16.5,18.625V216.265z"/>
<rect x="292.121" y="47" fill-rule="evenodd" clip-rule="evenodd" fill="none" stroke="#FFFFFF" stroke-width="3" width="22" height="22"/>
<rect x="292.121" y="80" fill-rule="evenodd" clip-rule="evenodd" fill="none" stroke="#FFFFFF" stroke-width="3" width="22" height="22"/>
<rect x="292.121" y="113" fill-rule="evenodd" clip-rule="evenodd" fill="none" stroke="#FFFFFF" stroke-width="3" width="22" height="22"/>
<rect x="292.121" y="146" fill-rule="evenodd" clip-rule="evenodd" fill="none" stroke="#FFFFFF" stroke-width="3" width="22" height="22"/>
<g>
	
		<line fill-rule="evenodd" clip-rule="evenodd" fill="none" stroke="#FFFFFF" stroke-width="3" x1="331.121" y1="52.5" x2="367.121" y2="52.5"/>
	
		<line fill-rule="evenodd" clip-rule="evenodd" fill="none" stroke="#FFFFFF" stroke-width="3" x1="331.121" y1="63.5" x2="397.121" y2="63.5"/>
</g>
<g>
	
		<line fill-rule="evenodd" clip-rule="evenodd" fill="none" stroke="#FFFFFF" stroke-width="3" x1="331.121" y1="85" x2="418.121" y2="85"/>
	
		<line fill-rule="evenodd" clip-rule="evenodd" fill="none" stroke="#FFFFFF" stroke-width="3" x1="331.121" y1="97" x2="404.121" y2="97"/>
</g>
<g>
	
		<line fill-rule="evenodd" clip-rule="evenodd" fill="none" stroke="#FFFFFF" stroke-width="3" x1="331.121" y1="118" x2="391.121" y2="118"/>
	
		<line fill-rule="evenodd" clip-rule="evenodd" fill="none" stroke="#FFFFFF" stroke-width="3" x1="331.121" y1="130" x2="365.121" y2="130"/>
</g>
<g>
	
		<line fill-rule="evenodd" clip-rule="evenodd" fill="none" stroke="#FFFFFF" stroke-width="3" x1="331.121" y1="150.5" x2="393.121" y2="150.5"/>
	
		<line fill-rule="evenodd" clip-rule="evenodd" fill="none" stroke="#FFFFFF" stroke-width="3" x1="331.121" y1="163.5" x2="420.121" y2="163.5"/>
</g>
<polyline fill-rule="evenodd" clip-rule="evenodd" fill="none" stroke="#1D58DD" stroke-width="3" points="299.329,87.833 
	304.719,95.205 322.762,71.782 "/>
<polyline fill-rule="evenodd" clip-rule="evenodd" fill="none" stroke="#1D58DD" stroke-width="3" points="299.329,121.655 
	304.719,129.027 322.762,105.604 "/>
<polyline fill-rule="evenodd" clip-rule="evenodd" fill="none" stroke="#1D58DD" stroke-width="3" points="299.329,154.478 
	304.719,161.849 322.762,138.426 "/>
<path fill-rule="evenodd" clip-rule="evenodd" fill="#D81A2D" d="M126.121,77.89c3.056,0.723,3.541-2,6-2
	c4.153,0.138,0.202,0.658,0,2c17.113-0.712,23.324,11.556,18,22c1.412-2.945-1.611-1.168-5,1c-4.453-0.035-10.889-0.369-5,2
	c-1.666,0-3.334,0-5,0c1.852-3.367-0.258-0.118-2-2c-2.069,2.188,0.493,5.383,2,7c0,0.333,0,0.667,0,1c-0.441,4.996-2.108-2.206-5-1
	c-0.334,0-0.666,0-1,0c0-0.333,0-0.667,0-1c-9.518,1.918,0.463,11.629,3,14c-1.964,3.789-7.555,6.714-13,4
	c-9.559-4.15-17.158-16.612-13-28c1.555-4.257,5.58-3.086,7-5C117.393,86.13,115.483,75.505,126.121,77.89z"/>
<path fill-rule="evenodd" clip-rule="evenodd" fill="#1D58DD" d="M101.121,407.89c5.93,4.737,16.643,4.691,20,12
	c-5.158,2.175-14.217,0.449-21,1c-6.188-0.146-11.096-1.571-16-3c-1.246-4.364-0.444-8.807,1-13
	C89.935,407.795,98.121,405.373,101.121,407.89z"/>
<path fill-rule="evenodd" clip-rule="evenodd" fill="#1D58DD" d="M144.121,411.89c8.529,3.471,19.83,4.169,24,12
	c-9.129,2.959-28.939,3.324-38,0c-0.021-5.021-0.392-10.392,3-12C136.683,415.344,142.099,409.977,144.121,411.89z"/>
<path fill-rule="evenodd" clip-rule="evenodd" fill="#F6C24E" d="M122.121,135.89c0.037,0.024,0.086,0.053,0.127,0.079V125.89
	h-3.127v9.15C120.061,135.068,121.029,135.293,122.121,135.89z"/>
<path fill-rule="evenodd" clip-rule="evenodd" fill="#EFAF11" d="M92.121,247.89c0.162-1.163-0.221-1.779-1-2
	c-0.575-1.758,1.209-5.875-1-6v33c-0.326,18.673-0.441,37.559-2,55v4c0.102,24.768-0.199,49.135-2,72c-0.609,0.057-1.184,0.149-1,1
	c4.814,2.905,13,0.483,16,3c-3.131-6.699,1.242-20.225,3-30c5.623-31.272,11.637-64.69,17-92c3.402,42.598,7.409,84.591,12,126
	c3.563,3.454,8.979-1.913,11,0c-0.709-12.443,2.592-29.357,4-43v-5c2.345-27.989,3.226-57.441,6-85v-6
	c0.108-0.888,0.141-1.853,0.136-2.854l0.864-14.146c0.619-2.714,1-9,1-9s0-0.667,0-1v-6
	C139.043,246.301,115.714,254.343,92.121,247.89z"/>
<path fill="none" d="M174.121,154.89c0.688-0.158,1.232,0.047,1.67,0.256l-1.201-0.972
	C174.408,154.387,174.244,154.618,174.121,154.89z"/>
<path fill="none" d="M177.121,154.89c-0.609-0.057-1.184-0.149-1-1c3.37,0.958,7.221-2.674,5-4
	c-1.031,2.573-4.867,2.343-6.531,4.284l1.201,0.972C176.448,155.459,176.859,155.781,177.121,154.89z"/>
<path fill="#EE514A" d="M214.121,122.89c-0.376,0.44-0.752,0.88-1.129,1.32C213.286,123.996,213.629,123.583,214.121,122.89z"/>
<g>
	<path fill="#D81A2D" d="M154.241,186.653c2.177,2.177,10.943-2.653,22.755-11.019l-9.253-9.253
		C157.895,176.735,152.082,184.494,154.241,186.653z"/>
	<path fill="#D81A2D" d="M259.849,83.627c0,0-63.323,52.488-92.106,82.754l9.253,9.253c34.158-24.188,93.854-78.008,93.854-78.008
		L259.849,83.627z"/>
</g>
<path fill-rule="evenodd" clip-rule="evenodd" fill="#EFAF11" d="M257.031,85.976c4.664,0,11.98,7.69,11.094,14.093
	c11.881-11.88,21.215-18.869,16.418-23.666S268.091,76.679,257.031,85.976z"/>
<path fill-rule="evenodd" clip-rule="evenodd" fill="#1D58DD" d="M284.083,83.638L284.083,83.638c0,0,0.391-0.359,1.041-0.979
	c0.313-0.546,0.854-0.005,1.313-1.264c11.057-0.911,16.014-16.274,15.645-21.756c-7.438,4.23-20.543,4.178-23.387,13
	c-0.611,0.057-2.584,1.609-3.195,2.508c2.027-0.897,10.689,4.095,8.582,8.492C284.082,83.639,284.082,83.639,284.083,83.638z"/>
<path fill-rule="evenodd" clip-rule="evenodd" fill="#F6C24E" d="M220.121,117.89c-0.373,3.293-3.522,3.811-6,5
	c-1.762,2.488-1.652,1.458-4,0C209.943,117.712,216.517,119.286,220.121,117.89z"/>
<polygon fill="#1D58DD" points="210.121,122.89 157.621,148.25 138.121,185.25 214.177,125.702 212.143,124.293 "/>
<path fill="#1D58DD" d="M239.121,123.89v-8c-2.256,0.745-0.391,5.609-1,8c-18.661,12.006-32.191,29.142-54,38l-9.531-7.716
	l-20.797-16.836c-0.863-0.604-1.73-1.159-2.672-1.448c-6.152-1.891-11.65-0.195-17-2c-1.889,0.111-0.693,3.306-3,3h-1
	c-1.46,2.354-6.54-0.048-8-1c-3.541-1.935-5.775,0.025-10,0c-1.869,0.798-3.662,1.671-6,2c-3.463,1.871-6.129,4.538-8,8
	c-0.966,6.367-7,20.86-7,42v48c0.127,1.794-1.225,2.109-1,4v7.553l2,0.447c23.594,6.453,46.923-1.589,64-8
	c0.483-2.85,3.797-2.87,6-4c-3.104-11.24-7.121-21.568-8.978-34.056c-0.015,0.026-0.022,0.041-0.022,0.041
	c-0.035-0.31-0.068-0.638-0.104-0.975c-0.479-3.445-0.786-7.06-0.866-10.903c-0.048-0.718-0.095-1.438-0.14-2.155l-0.891-15.953
	l11.82,7.092c2.459,0.997,4.913,2.864,6.941,4.165l1.238,0.743c24.805,7.656,43.605-24.363,59-41c2.613-2.824,5.898-4.597,8-7
	c2.131-2.438,3.154-6.956,6-9C241.789,126.556,239.812,125.865,239.121,123.89z"/>
<path fill="#F6C24E" d="M251.121,115.89c-1.286-1.714-2.068-3.932-5-4c-0.857,2.156-0.094,4.925-3,7c-1.719-1.043-1.239-5.854-4-3
	c-2.256,0.745-1.09,8.061-1.135,8.091c0,0,1.447,3.625,5.303,3.625l0.832-0.715c2.844-1.702,4-3,4-3
	C252.162,123.264,252.548,116.279,251.121,115.89z"/>
<path fill-rule="evenodd" clip-rule="evenodd" fill="#F6C24E" d="M142.121,123.89c2.408-5.604,1.653-19.663,3-23
	c-1.725-0.014-3.744-0.071-5.232,0h-6.768c-2.069,2.188,0.493,5.383,2,7c0-0.015,0,0.985,0,1c-0.377,4.271-1.65-0.368-3.818-1.053
	c-4.674-3.538-6.684-0.892-6.188,3.044c0.019,0.186,0.046,0.373,0.088,0.564c0.608,3.372,2.944,7.468,6.919,9.444
	c-1.964,3.789-7.555,6.714-13,4v1c4.064,1.977,2.633,8.299,3,10c1.46,0.952,6.54,3.354,8,1c0,0,0.984,0.001,1,0
	c2.307,0.306,1.111-2.889,3-3c0.086-1.419,0.165-2.832-1-3C132.48,126.872,138.724,126.548,142.121,123.89z"/>
</svg>
